<svg width="373" height="120" viewBox="0 0 373 120" fill="none" xmlns="http://www.w3.org/2000/svg">
<g filter="url(#filter0_i_1_5037)">
<path d="M63.744 27.8H57.984L46.656 85.304L36.864 38.84H31.872L21.984 85.304L10.944 27.8H5.184L18.24 95H25.728L34.176 53.624L42.912 95H50.4L63.744 27.8ZM95.3153 49.784V95H101.171V27.8H95.3153V44.6H81.7793V27.8H75.9233V95H81.7793V49.784H95.3153ZM139.28 84.536L141.392 95H147.248L132.944 27.8H125.84L112.304 95H117.968L123.344 67.16L139.28 84.536ZM137.264 74.456L124.688 60.728L129.392 36.344L137.264 74.456ZM165.836 33.368H177.836V27.8H147.98V33.368H159.98V95H165.836V33.368ZM220.937 84.536L223.049 95H228.905L214.601 27.8H207.497L193.961 95H199.625L205.001 67.16L220.937 84.536ZM218.921 74.456L206.345 60.728L211.049 36.344L218.921 74.456ZM257.842 89.336V27.8H251.986V95H274.258V89.336H257.842ZM283.586 27.8V95H289.442V27.8H283.586ZM333.956 27.8H328.1V48.92L310.436 27.8H304.58V95H310.436V36.728L328.1 57.848V95H333.956V27.8ZM348.83 27.8V95H369.47V89.336H354.686V50.168H363.806V44.984H354.686V33.368H369.47V27.8H348.83Z" fill="#323232"/>
</g>
<path d="M63.744 27.8L64.7249 27.9948L64.9621 26.8H63.744V27.8ZM57.984 27.8V26.8H57.1618L57.0029 27.6067L57.984 27.8ZM46.656 85.304L45.6775 85.5102L47.6371 85.4973L46.656 85.304ZM36.864 38.84L37.8425 38.6338L37.6752 37.84H36.864V38.84ZM31.872 38.84V37.84H31.0624L30.8939 38.6318L31.872 38.84ZM21.984 85.304L21.0019 85.4925L22.9621 85.5121L21.984 85.304ZM10.944 27.8L11.9261 27.6115L11.7703 26.8H10.944V27.8ZM5.184 27.8V26.8H3.97102L4.20236 27.9907L5.184 27.8ZM18.24 95L17.2584 95.1907L17.4156 96H18.24V95ZM25.728 95V96H26.5445L26.7078 95.2001L25.728 95ZM34.176 53.624L35.1544 53.4174L33.1962 53.424L34.176 53.624ZM42.912 95L41.9336 95.2066L42.1011 96H42.912V95ZM50.4 95V96H51.221L51.3809 95.1948L50.4 95ZM63.744 26.8H57.984V28.8H63.744V26.8ZM57.0029 27.6067L45.6749 85.1107L47.6371 85.4973L58.9651 27.9933L57.0029 27.6067ZM47.6345 85.0978L37.8425 38.6338L35.8855 39.0462L45.6775 85.5102L47.6345 85.0978ZM36.864 37.84H31.872V39.84H36.864V37.84ZM30.8939 38.6318L21.0059 85.0958L22.9621 85.5121L32.8501 39.0481L30.8939 38.6318ZM22.9661 85.1155L11.9261 27.6115L9.96194 27.9885L21.0019 85.4925L22.9661 85.1155ZM10.944 26.8H5.184V28.8H10.944V26.8ZM4.20236 27.9907L17.2584 95.1907L19.2216 94.8093L6.16564 27.6093L4.20236 27.9907ZM18.24 96H25.728V94H18.24V96ZM26.7078 95.2001L35.1558 53.824L33.1962 53.424L24.7482 94.7999L26.7078 95.2001ZM33.1976 53.8306L41.9336 95.2066L43.8904 94.7934L35.1544 53.4174L33.1976 53.8306ZM42.912 96H50.4V94H42.912V96ZM51.3809 95.1948L64.7249 27.9948L62.7632 27.6052L49.4192 94.8052L51.3809 95.1948ZM95.3153 49.784H96.3153V48.784H95.3153V49.784ZM95.3153 95H94.3153V96H95.3153V95ZM101.171 95V96H102.171V95H101.171ZM101.171 27.8H102.171V26.8H101.171V27.8ZM95.3153 27.8V26.8H94.3153V27.8H95.3153ZM95.3153 44.6V45.6H96.3153V44.6H95.3153ZM81.7793 44.6H80.7793V45.6H81.7793V44.6ZM81.7793 27.8H82.7793V26.8H81.7793V27.8ZM75.9232 27.8V26.8H74.9232V27.8H75.9232ZM75.9232 95H74.9232V96H75.9232V95ZM81.7793 95V96H82.7793V95H81.7793ZM81.7793 49.784V48.784H80.7793V49.784H81.7793ZM94.3153 49.784V95H96.3153V49.784H94.3153ZM95.3153 96H101.171V94H95.3153V96ZM102.171 95V27.8H100.171V95H102.171ZM101.171 26.8H95.3153V28.8H101.171V26.8ZM94.3153 27.8V44.6H96.3153V27.8H94.3153ZM95.3153 43.6H81.7793V45.6H95.3153V43.6ZM82.7793 44.6V27.8H80.7793V44.6H82.7793ZM81.7793 26.8H75.9232V28.8H81.7793V26.8ZM74.9232 27.8V95H76.9232V27.8H74.9232ZM75.9232 96H81.7793V94H75.9232V96ZM82.7793 95V49.784H80.7793V95H82.7793ZM81.7793 50.784H95.3153V48.784H81.7793V50.784ZM139.28 84.536L140.26 84.3382L140.205 84.0653L140.017 83.8601L139.28 84.536ZM141.392 95L140.412 95.1978L140.574 96H141.392V95ZM147.248 95V96H148.484L148.226 94.7918L147.248 95ZM132.944 27.8L133.922 27.5918L133.754 26.8H132.944V27.8ZM125.84 27.8V26.8H125.022L124.86 27.6025L125.84 27.8ZM112.304 95L111.324 94.8025L111.083 96H112.304V95ZM117.968 95V96H118.794L118.95 95.1896L117.968 95ZM123.344 67.16L124.081 66.4841L122.739 65.0205L122.362 66.9704L123.344 67.16ZM137.264 74.456L136.527 75.1315L138.977 77.8065L138.244 74.2537L137.264 74.456ZM124.688 60.728L123.706 60.5386L123.611 61.0325L123.951 61.4035L124.688 60.728ZM129.392 36.344L130.372 36.1417L128.41 36.1546L129.392 36.344ZM138.3 84.7338L140.412 95.1978L142.372 94.8022L140.26 84.3382L138.3 84.7338ZM141.392 96H147.248V94H141.392V96ZM148.226 94.7918L133.922 27.5918L131.966 28.0082L146.27 95.2082L148.226 94.7918ZM132.944 26.8H125.84V28.8H132.944V26.8ZM124.86 27.6025L111.324 94.8025L113.285 95.1975L126.821 27.9975L124.86 27.6025ZM112.304 96H117.968V94H112.304V96ZM118.95 95.1896L124.326 67.3496L122.362 66.9704L116.986 94.8104L118.95 95.1896ZM122.607 67.8359L138.543 85.2119L140.017 83.8601L124.081 66.4841L122.607 67.8359ZM138.002 73.7805L125.426 60.0525L123.951 61.4035L136.527 75.1315L138.002 73.7805ZM125.67 60.9174L130.374 36.5334L128.41 36.1546L123.706 60.5386L125.67 60.9174ZM128.413 36.5463L136.285 74.6583L138.244 74.2537L130.372 36.1417L128.413 36.5463ZM165.836 33.368V32.368H164.836V33.368H165.836ZM177.836 33.368V34.368H178.836V33.368H177.836ZM177.836 27.8H178.836V26.8H177.836V27.8ZM147.98 27.8V26.8H146.98V27.8H147.98ZM147.98 33.368H146.98V34.368H147.98V33.368ZM159.98 33.368H160.98V32.368H159.98V33.368ZM159.98 95H158.98V96H159.98V95ZM165.836 95V96H166.836V95H165.836ZM165.836 34.368H177.836V32.368H165.836V34.368ZM178.836 33.368V27.8H176.836V33.368H178.836ZM177.836 26.8H147.98V28.8H177.836V26.8ZM146.98 27.8V33.368H148.98V27.8H146.98ZM147.98 34.368H159.98V32.368H147.98V34.368ZM158.98 33.368V95H160.98V33.368H158.98ZM159.98 96H165.836V94H159.98V96ZM166.836 95V33.368H164.836V95H166.836ZM220.936 84.536L221.917 84.3382L221.862 84.0653L221.673 83.8601L220.936 84.536ZM223.049 95L222.068 95.1978L222.23 96H223.049V95ZM228.904 95V96H230.14L229.883 94.7918L228.904 95ZM214.6 27.8L215.579 27.5918L215.41 26.8H214.6V27.8ZM207.497 27.8V26.8H206.678L206.516 27.6025L207.497 27.8ZM193.96 95L192.98 94.8025L192.739 96H193.96V95ZM199.624 95V96H200.45L200.606 95.1896L199.624 95ZM205.001 67.16L205.737 66.4841L204.395 65.0205L204.019 66.9704L205.001 67.16ZM218.921 74.456L218.183 75.1315L220.634 77.8065L219.9 74.2537L218.921 74.456ZM206.344 60.728L205.363 60.5386L205.267 61.0325L205.607 61.4035L206.344 60.728ZM211.049 36.344L212.028 36.1417L210.067 36.1546L211.049 36.344ZM219.956 84.7338L222.068 95.1978L224.029 94.8022L221.917 84.3382L219.956 84.7338ZM223.049 96H228.904V94H223.049V96ZM229.883 94.7918L215.579 27.5918L213.622 28.0082L227.926 95.2082L229.883 94.7918ZM214.6 26.8H207.497V28.8H214.6V26.8ZM206.516 27.6025L192.98 94.8025L194.941 95.1975L208.477 27.9975L206.516 27.6025ZM193.96 96H199.624V94H193.96V96ZM200.606 95.1896L205.982 67.3496L204.019 66.9704L198.643 94.8104L200.606 95.1896ZM204.264 67.8359L220.2 85.2119L221.673 83.8601L205.737 66.4841L204.264 67.8359ZM219.658 73.7805L207.082 60.0525L205.607 61.4035L218.183 75.1315L219.658 73.7805ZM207.326 60.9174L212.03 36.5334L210.067 36.1546L205.363 60.5386L207.326 60.9174ZM210.069 36.5463L217.941 74.6583L219.9 74.2537L212.028 36.1417L210.069 36.5463ZM257.842 89.336H256.842V90.336H257.842V89.336ZM257.842 27.8H258.842V26.8H257.842V27.8ZM251.986 27.8V26.8H250.986V27.8H251.986ZM251.986 95H250.986V96H251.986V95ZM274.258 95V96H275.258V95H274.258ZM274.258 89.336H275.258V88.336H274.258V89.336ZM258.842 89.336V27.8H256.842V89.336H258.842ZM257.842 26.8H251.986V28.8H257.842V26.8ZM250.986 27.8V95H252.986V27.8H250.986ZM251.986 96H274.258V94H251.986V96ZM275.258 95V89.336H273.258V95H275.258ZM274.258 88.336H257.842V90.336H274.258V88.336ZM283.586 27.8V26.8H282.586V27.8H283.586ZM283.586 95H282.586V96H283.586V95ZM289.442 95V96H290.442V95H289.442ZM289.442 27.8H290.442V26.8H289.442V27.8ZM282.586 27.8V95H284.586V27.8H282.586ZM283.586 96H289.442V94H283.586V96ZM290.442 95V27.8H288.442V95H290.442ZM289.442 26.8H283.586V28.8H289.442V26.8ZM333.956 27.8H334.956V26.8H333.956V27.8ZM328.099 27.8V26.8H327.099V27.8H328.099ZM328.099 48.92L327.332 49.5616L329.099 51.6744V48.92H328.099ZM310.435 27.8L311.203 27.1584L310.903 26.8H310.435V27.8ZM304.579 27.8V26.8H303.579V27.8H304.579ZM304.579 95H303.579V96H304.579V95ZM310.435 95V96H311.435V95H310.435ZM310.435 36.728L311.203 36.0864L309.435 33.9736V36.728H310.435ZM328.099 57.848H329.099V57.4849L328.867 57.2064L328.099 57.848ZM328.099 95H327.099V96H328.099V95ZM333.956 95V96H334.956V95H333.956ZM333.956 26.8H328.099V28.8H333.956V26.8ZM327.099 27.8V48.92H329.099V27.8H327.099ZM328.867 48.2784L311.203 27.1584L309.668 28.4416L327.332 49.5616L328.867 48.2784ZM310.435 26.8H304.579V28.8H310.435V26.8ZM303.579 27.8V95H305.579V27.8H303.579ZM304.579 96H310.435V94H304.579V96ZM311.435 95V36.728H309.435V95H311.435ZM309.668 37.3695L327.332 58.4896L328.867 57.2064L311.203 36.0864L309.668 37.3695ZM327.099 57.848V95H329.099V57.848H327.099ZM328.099 96H333.956V94H328.099V96ZM334.956 95V27.8H332.956V95H334.956ZM348.829 27.8V26.8H347.829V27.8H348.829ZM348.829 95H347.829V96H348.829V95ZM369.47 95V96H370.47V95H369.47ZM369.47 89.336H370.47V88.336H369.47V89.336ZM354.685 89.336H353.685V90.336H354.685V89.336ZM354.685 50.168V49.168H353.685V50.168H354.685ZM363.806 50.168V51.168H364.806V50.168H363.806ZM363.806 44.984H364.806V43.984H363.806V44.984ZM354.685 44.984H353.685V45.984H354.685V44.984ZM354.685 33.368V32.368H353.685V33.368H354.685ZM369.47 33.368V34.368H370.47V33.368H369.47ZM369.47 27.8H370.47V26.8H369.47V27.8ZM347.829 27.8V95H349.829V27.8H347.829ZM348.829 96H369.47V94H348.829V96ZM370.47 95V89.336H368.47V95H370.47ZM369.47 88.336H354.685V90.336H369.47V88.336ZM355.685 89.336V50.168H353.685V89.336H355.685ZM354.685 51.168H363.806V49.168H354.685V51.168ZM364.806 50.168V44.984H362.806V50.168H364.806ZM363.806 43.984H354.685V45.984H363.806V43.984ZM355.685 44.984V33.368H353.685V44.984H355.685ZM354.685 34.368H369.47V32.368H354.685V34.368ZM370.47 33.368V27.8H368.47V33.368H370.47ZM369.47 26.8H348.829V28.8H369.47V26.8Z" fill="#ECEBEC"/>
<defs>
<filter id="filter0_i_1_5037" x="5.18359" y="27.7998" width="364.286" height="71.2002" filterUnits="userSpaceOnUse" color-interpolation-filters="sRGB">
<feFlood flood-opacity="0" result="BackgroundImageFix"/>
<feBlend mode="normal" in="SourceGraphic" in2="BackgroundImageFix" result="shape"/>
<feColorMatrix in="SourceAlpha" type="matrix" values="0 0 0 0 0 0 0 0 0 0 0 0 0 0 0 0 0 0 127 0" result="hardAlpha"/>
<feOffset dy="4"/>
<feGaussianBlur stdDeviation="2"/>
<feComposite in2="hardAlpha" operator="arithmetic" k2="-1" k3="1"/>
<feColorMatrix type="matrix" values="0 0 0 0 0 0 0 0 0 0 0 0 0 0 0 0 0 0 0.25 0"/>
<feBlend mode="normal" in2="shape" result="effect1_innerShadow_1_5037"/>
</filter>
</defs>
</svg>
